<?xml version="1.0" encoding="UTF-8"?>
<svg xmlns="http://www.w3.org/2000/svg" viewBox="0 0 412 331" width="412" height="331">
<path d="M0.13 0.13C137.38 0.13 274.63 0.13 411.88 0.13C411.88 110.38 411.88 220.63 411.88 330.88C274.63 330.88 137.38 330.88 0.13 330.88C0.13 220.63 0.13 110.38 0.13 0.13ZM88.95 12.92C83.94 16.3 85.69 21.22 83 23.75C83.59 24.42 84.17 25.08 84.76 25.75C84.48 26.83 84.21 27.92 83.94 29C83.46 30.58 82.98 32.17 82.5 33.75C81.18 33.64 80.78 34.94 79.85 35.75C80.77 36 81.68 36.25 82.59 36.5C81.76 43.47 81.92 50.46 81.75 57.47C81.46 69.31 81.02 81.16 80.63 93C80.29 103.01 80.45 113.29 79.56 123.25C78.95 130.09 77.86 136.99 77.47 143.75C77.12 149.88 78.07 156.14 77.42 162.25C77.06 165.59 75.78 168.91 75.53 172.25C74.64 184.32 74 196.64 73.63 208.75C73.47 214.14 74.4 220.46 73.39 225.73C73.23 226.53 72.65 226.95 72.46 227.76C71.12 233.74 71.64 240.65 71.6 246.75C71.56 254.86 71.04 263.14 70.53 271.25C69.72 284.33 67.83 298.33 69.98 311.27C70.2 312.55 69.83 313.91 70.16 315.18C70.91 318.11 72.62 320.56 73.75 323.41C78.01 324.25 82.44 325.27 86.76 325.89C91.01 326.5 102.2 326.91 106.23 325.96C107.02 325.77 107.41 325.23 108.26 325.12C118.19 323.85 128 323.79 137.85 321.68C141.98 320.8 146.45 321.37 150.56 320.28C152.13 319.87 153.32 318.36 154.75 317.73C156.51 316.94 157.44 316.66 158.65 314.75C158.52 314.17 158.38 313.58 158.25 313C158.58 312.5 158.9 312 159.23 311.5C160.14 311.23 164.26 301.74 164.73 300.03C165.14 298.56 164.74 296.78 164.89 295.27C165.49 289.28 166.4 283.25 166.77 277.21C167.15 271.13 166.49 264.88 166.52 258.75C166.54 253.3 167.04 247.68 166.47 242.25C165.43 232.36 165.29 222.46 163.84 212.64C162.88 206.08 163.23 199.48 161.88 193C161.43 190.88 162.1 188.61 161.74 186.47C161.36 184.13 159.55 182.47 159.15 180.25C158.04 174.24 158.32 168.3 157.83 162.25C157.6 159.54 156.56 157.3 156.2 154.75C155.52 149.88 155.46 144.66 155.67 139.75C155.72 138.39 156.52 138 156.8 136.75C157.95 131.55 156.8 123.27 156.81 117.75C156.84 103.42 156.65 89.08 156.72 74.75C156.75 67.41 156.89 60.07 156.71 52.73C156.66 50.48 157.18 47.83 156.7 45.62C154.61 36.11 149.75 27.1 145.25 18.42C143.9 19.09 143.13 18.78 141.75 18.2C141.24 16.28 141.08 15.93 139.24 15.25C136.67 7.44 135.16 9.28 128.41 6.25C116.52 0.92 96.65 0.12 88.95 12.92ZM271.4 37.18C271.35 37.62 271.3 38.06 271.25 38.5C269.66 39.39 269.16 42.63 269.06 44.5C269.02 44.83 268.99 45.17 268.96 45.5C268.82 45.68 268.67 45.86 268.53 46.04C267.89 47.68 267.26 49.32 266.63 50.96C266.59 50.8 266.54 50.65 266.5 50.5C266.67 50.42 266.83 50.33 267 50.25C267.17 49.92 267.33 49.58 267.5 49.25C267.42 48.67 267.33 48.08 267.25 47.5C267 47.75 266.75 48 266.5 48.25C266.5 49 266.5 49.75 266.5 50.5C266.3 50.66 266.11 50.81 265.91 50.97C265.93 51.15 265.95 51.32 265.97 51.5C265.9 55.51 265.84 59.52 265.78 63.53C264.87 70.97 265.45 78.74 265.45 86.25C265.46 96.33 265.57 106.42 265.63 116.5C265.66 122.32 264.67 129.02 265.67 134.75C266.3 138.35 266.5 141.88 266.5 145.75C266.5 153.05 267.1 160.62 265.98 167.73C265.3 172.11 263.89 177.01 265.5 181.25C263.63 183.81 263.99 188.99 263.77 192.21C263.44 197.2 262.45 202.37 261.33 207.25C257.48 209.04 258.03 217.7 259.03 221.75C258.71 222.32 257.97 222.85 257.76 223.38C257.6 223.78 256.7 233.71 256.75 234.6C257.25 233.39 257.75 232.18 258.25 230.97C258.78 252.87 257.14 274.53 260.15 296.24C260.88 301.5 262.41 314.79 264.83 318.88C266.23 321.23 272.22 322.75 274.25 325.31C279.3 325.64 283.91 326.92 288.86 327.79C295.47 328.95 303.04 329.44 309.75 329.39C317.99 329.32 325.45 325.93 333.5 325.59C333.83 325.41 334.17 325.22 334.5 325.04C338.3 324.63 349.55 317.63 347.5 313.25C350.99 310.97 349.31 304.3 349.89 300.77C350.61 296.45 349.95 291.64 349.82 287.25C349.59 278.78 349.34 269.95 349.91 261.5C349.85 258.67 349.78 255.83 349.72 253C349.64 252.92 349.57 252.83 349.5 252.75C349.5 252.53 349.5 252.31 349.5 252.08C349.37 252.06 349.24 252.03 349.11 252C349.12 251.17 349.13 250.33 349.14 249.5C349.09 248.83 349.04 248.17 348.98 247.5C348.98 244.67 348.98 241.83 348.98 239C348.89 237.5 348.81 236 348.72 234.5C348.65 234.36 348.57 234.22 348.5 234.08C348.37 234.06 348.25 234.03 348.12 234C348.1 233.72 348.07 233.44 348.04 233.16C348.08 232.94 348.11 232.72 348.15 232.5C348.07 232 348 231.5 347.92 231C347.95 227.92 347.97 224.83 348 221.75C346.28 220.9 346.82 218.35 346.92 216.5C346.91 215.75 346.91 215 346.9 214.25C346.63 214.17 346.36 214.08 346.09 214C345.94 213.83 345.79 213.67 345.64 213.5C345.67 211.02 345.7 208.55 345.72 206.07C345.73 205.71 345.73 205.36 345.74 205C345.66 204.86 345.58 204.72 345.5 204.58C345.35 204.61 345.21 204.64 345.06 204.66C345.13 204.44 345.21 204.22 345.28 204C345.21 203.92 345.14 203.83 345.07 203.75C345.1 203.5 345.12 203.25 345.14 203C345 193.5 344.87 184 344.74 174.5C344.63 174.25 344.51 174 344.4 173.75C344.44 173.69 344.47 173.64 344.5 173.58C344.29 173.58 344.08 173.58 343.87 173.58C343.7 173.89 343.52 174.19 343.34 174.5C343.23 174.42 343.11 174.33 343 174.25C343.08 172.67 343.17 171.08 343.25 169.5C343.48 168.17 343.71 166.83 343.94 165.5C344.83 160.31 342.63 154.35 342.21 149.23C341.45 140.11 342.02 130.88 339.94 122C339.91 119.74 340.23 117.19 339.74 114.97C339.51 113.97 338.82 113.21 338.71 112.18C338.46 109.77 338.98 107.29 338.76 104.87C338.64 103.53 337.73 102.53 337.61 101.24C337.38 98.96 337.99 96.63 337.77 94.34C337.65 93.15 336.86 92.31 336.68 91.17C336.35 89.12 336.87 86.84 336.79 84.75C336.67 81.38 332.98 75.58 335.64 73.25C335.39 72.5 335.14 71.75 334.9 71C335.5 66.87 334.37 63.23 334.09 59.25C333.36 48.76 332.54 38.47 331.97 28C332.13 23.67 330.4 18.53 328.2 15.2C326.92 13.27 326.46 9.53 323.01 10.5C322.19 9.15 321.82 9.71 320.5 9.75C323.04 7.54 316.81 6.75 314.77 6.39C310.93 5.72 306.36 8.79 303.31 10.33C291.64 16.23 276.18 23.58 271.4 37.18ZM268.25 44.5C268.17 44.58 268.08 44.67 268 44.75C268.08 44.83 268.17 44.92 268.25 45C268.33 44.92 268.42 44.83 268.5 44.75C268.42 44.67 268.33 44.58 268.25 44.5ZM267.75 45.5C267.67 45.58 267.58 45.67 267.5 45.75C267.5 45.92 267.5 46.08 267.5 46.25C267.58 46.33 267.67 46.42 267.75 46.5C267.83 46.42 267.92 46.33 268 46.25C268 46.08 268 45.92 268 45.75C267.92 45.67 267.83 45.58 267.75 45.5ZM76.75 50.22C75.82 51.95 75.61 57.38 76.97 58.75C77.76 56.91 78.19 51.63 76.75 50.22ZM192.58 146.95C181.97 147.38 171.36 147.81 160.75 148.23C160.45 148.69 160.15 149.15 159.85 149.61C159.7 153.26 158.56 158.64 162.79 160.55C165.1 161.59 168.68 160.41 171.17 160.73C176.83 161.47 182.41 161.69 188.25 161.69C202.77 161.69 217.24 160.84 231.75 160.61C238.68 160.49 250.22 161.57 256.53 160.08C257.85 160.02 259.18 159.96 260.5 159.9C262.1 159.51 262.81 159.22 263.58 157.75C263.39 157.64 263.19 157.53 263 157.42C263.33 157.03 263.67 156.64 264 156.25C263.83 153.36 263.67 150.46 263.5 147.57C263.08 147.55 262.67 147.52 262.25 147.5C262.17 147.63 262.08 147.77 262 147.9C255.43 149.03 248.87 149.11 242.31 147.75C246.1 147.42 249.88 147.08 253.66 146.75C240.3 145.24 226.68 146.06 213.25 146.06C206.88 146.06 198.63 144.86 192.58 146.95ZM345.75 149.8C343.97 152.12 344.42 156.18 345.75 158.72C359.97 158.72 374.07 157.43 388.25 157.46C391.38 157.46 400.96 157.69 401.62 154.75C399.29 152.94 390.08 153.9 386.75 153.9C373.75 153.9 360.75 153.77 347.75 153.77C347.18 151.92 347.49 150.94 345.75 149.8ZM54.08 151.79C44.09 153.39 33.83 153.07 23.75 153.1C20.93 153.11 12.1 153.42 10.25 155C8.52 154.23 7.06 154.62 5.25 155.1C5.36 155.78 5.47 156.47 5.57 157.16C6.05 157.26 6.52 157.36 7 157.45C7.16 157.48 7.33 157.51 7.49 157.54C7.99 157.67 8.5 157.8 9 157.93C9.17 157.95 9.33 157.97 9.5 157.99C9.66 158.01 9.81 158.03 9.97 158.04C10.18 158.61 10.39 159.18 10.6 159.75C26.48 161.64 40.6 161.66 56.61 161.26C63.03 161.09 69.97 162.46 75.25 158.78C75.87 156.47 76.3 152.24 74.75 150.4C73.53 150.56 72.86 151.25 71.74 151.45C66.03 152.51 59.76 150.36 54.08 151.79ZM250.51 178.58C250.67 178.54 250.84 178.49 251 178.45C252.72 178.34 253.74 176.49 254.91 175.25C253.15 170.7 238.49 170.5 234.39 171.75C233.58 171.99 233.13 172.88 232.23 173.03C229.95 173.41 227.09 172.99 224.75 172.96C214.87 172.86 205.73 171.52 196.12 170.23C191.74 169.65 187.15 170 182.75 170C178.59 170 167.37 168.13 165.85 173.76C165.27 175.91 166.99 177.71 167.75 179.51C188.25 179.51 208.75 179.51 229.25 179.51C234.25 179.51 239.25 179.52 244.25 179.49C246.29 179.48 248.95 180.07 250.51 178.58ZM188.9 187.21C189.19 188.57 189.47 189.92 189.75 191.27C192.27 191.64 194.89 192.63 197.36 193.24C201.75 194.32 207.72 193.27 212.25 193.27C216.95 193.27 229.28 194.29 233.11 193.23C237.96 191.9 243.18 190.69 248 188.89C248.42 188.51 248.84 188.13 249.25 187.75C246.3 185.21 241.02 185.9 237.29 184.91C224.71 181.58 202.12 181.72 189.59 185.25C189.36 185.9 189.13 186.56 188.9 187.21ZM259.27 227.36C259.27 228.36 259.27 229.36 259.27 230.36C258.84 230.16 258.41 229.95 257.99 229.75C258.41 228.95 258.84 228.16 259.27 227.36ZM65.75 294.03C65.02 296.03 64.8 302.97 66.25 304.35C67.17 302.18 67.54 295.41 65.75 294.03Z" fill="#f1f1f1" fill-rule="evenodd" stroke="#f1f1f1" stroke-width="0.25" stroke-linejoin="round"/>
<path d="M323.25 12.5C323.66 14.53 324.02 15.27 325.5 16.75C325.12 17.75 324.73 18.75 324.35 19.75C325.4 20.42 326.45 21.08 327.5 21.75C327.5 23.94 326.92 27.08 327.59 29.16C327.8 29.79 328.34 30.06 328.48 30.77C328.78 32.25 327.85 34.7 328.77 35.98C329.12 36.48 329.96 36.59 330.5 36.75C329.41 39.69 330.92 43.74 328.75 46C329.24 43.34 329.03 41.43 329 38.75C327.63 37.69 327.2 37 326 35.75C326.81 34.13 326.46 29.53 324.48 28.27C323.64 27.73 322.21 28 321.25 28C319.96 21.53 324.27 21.22 324.5 18.25C323.18 16.99 321.78 18.09 320 17.75C319.58 16.4 319.68 13.16 318.48 12.27C317.88 11.82 317.17 11.89 316.75 11.5C319.2 11.01 321.02 11.39 323.25 12.5ZM88.95 12.92C89.46 13.2 89.98 13.47 90.5 13.75C90 15.92 89.5 18.08 89 20.25C90.11 23.12 91.4 24.59 90.25 27.92C88.59 27.95 88.14 27.77 87.35 29.25C88.18 29.92 89.01 30.58 89.84 31.25C89.31 32.42 88.78 33.6 88.25 34.77C89.08 34.58 89.92 34.39 90.75 34.19C90.93 36.71 91.1 39.23 91.28 41.75C95.15 41.98 100.41 41.63 101.75 46C106.75 46.56 109.07 50.71 113.17 53.1C115.14 54.25 118.05 54.54 117 57.25C115.75 57.09 114.5 56.92 113.25 56.76C113.25 58.1 113.25 59.44 113.25 60.78C111.44 60.49 109.82 59.12 108.11 60.25C109.31 63.5 115.95 62.21 117.29 65.75C115.94 65.76 114.6 65.76 113.25 65.77C113.05 66.93 112.85 68.09 112.64 69.25C111.82 69.58 111 69.92 110.18 70.25C111.23 72.56 113.84 72.91 113.93 75.75C113.01 76.08 112.09 76.42 111.17 76.75C111.51 78.11 112.12 77.5 112.74 78.46C113.7 79.96 112.87 83.43 112.03 84.75C112.62 85.92 113.21 87.08 113.79 88.25C113.35 89.42 112.9 90.58 112.46 91.75C114.72 93.45 117.44 93.1 116.75 96.61C114.92 96.43 113.08 96.25 111.25 96.07C110.68 94.79 110.11 93.52 109.54 92.25C106.7 92.06 104.39 92.38 103.19 95.25C103.71 96.26 104.23 97.27 104.75 98.28C105.75 97.79 106.75 97.3 107.75 96.82C108.66 97.56 109.11 99.04 110.12 99.6C111.5 100.37 113.42 100.48 114.92 101.25C114.23 101.94 112.7 101.7 112.19 102.41C111.03 104.04 112.02 109.24 112.87 110.75C111.08 111.23 110.78 111.71 109.75 113.16C108.08 113.75 106.42 114.34 104.75 114.92C104.88 116.2 105.01 117.47 105.13 118.75C103.3 123.4 98.18 127.49 100.09 132.75C98.9 133.08 97.71 133.42 96.52 133.75C97.82 136.21 97.96 139.45 100.87 140.25C101.46 141.42 102.06 142.58 102.66 143.75C103.02 141.8 103.39 139.85 103.75 137.9C105.86 138.88 105.3 141.63 107.03 143.23C108.35 144.46 110.95 143.91 112.09 145.19C112.71 145.87 112.17 146.55 111.85 147.25C108.23 147.41 106.15 143.47 102.75 145.77C101.92 145.5 101.08 145.24 100.25 144.97C99.76 147.4 100.62 149.43 103.01 150.25C103.55 152.93 106.99 152.8 109.04 154.25C109.02 158.03 108.89 160.64 105.44 162.25C106.06 162.75 106.68 163.25 107.3 163.75C103.71 166.17 98.34 164.64 94.45 164.75C96.03 167.92 101.09 167.33 103.97 168.25C104.02 169.92 104.06 171.58 104.1 173.25C106.51 174.95 107.22 176.52 106.66 179.75C105.19 179.97 103.72 180.2 102.25 180.42C102 184.47 103.84 187.62 105.5 191.25C105.05 191.75 104.61 192.25 104.16 192.75C104.86 193.87 105.55 194.98 106.25 196.1C107.33 195.48 108.42 194.87 109.5 194.25C109.19 193.42 108.87 192.58 108.56 191.75C109.06 191.23 109.78 190.29 110.66 190.56C111.56 190.84 112.39 192.96 113.08 193.65C114.74 195.31 116.98 195.89 118.83 197.25C118.83 199.48 118.67 201.09 117.18 202.75C117.2 203.78 117.23 204.81 117.25 205.84C119.57 206.95 120.81 206.6 123.05 207.25C122.6 209.08 122.15 210.92 121.7 212.75C119.29 212.48 118.72 211.07 117.25 209.44C116.25 209.63 115.25 209.83 114.25 210.02C113.92 209.07 113.58 208.13 113.25 207.18C111.04 207.95 113.14 210.59 114.75 210.95C115.42 212.73 116.05 213.24 117.75 214.11C117.86 214.99 117.97 215.87 118.09 216.75C119.12 217.42 120.15 218.08 121.19 218.75C119.74 220.04 118.57 220.05 116.67 219.75C116.53 218.61 116.39 217.47 116.25 216.33C114.75 214.89 113.25 213.46 111.75 212.02C111.08 212.66 110.42 213.3 109.75 213.94C108.95 210.71 108.15 207.48 107.35 204.25C104.49 203.16 102.21 204.73 102.25 207.73C105.28 208.87 103.34 215.83 108.75 217.38C108.94 218.34 109.13 219.29 109.33 220.25C112.15 221.42 114.97 222.58 117.79 223.75C115.03 224.63 112.72 224.19 113.13 227.75C115.28 228.52 122.91 230.8 122.25 227.23C125.21 227.54 124.55 229.82 125.85 231.88C127.47 234.46 132.1 235.92 129.25 239.87C126.77 239.1 127.31 236.13 126.75 234.02C124.25 233.51 121.75 232.99 119.25 232.47C119.06 233.56 118.87 234.66 118.68 235.75C116.75 235.93 114.74 234.58 113.59 236.25C114.84 237.56 117.91 236.79 118.74 238.96C121.62 246.56 114.21 250.91 111.15 245.75C110.81 246.75 110.47 247.75 110.12 248.75C108.6 249.58 107.08 250.42 105.56 251.25C110.62 255.18 104.14 260.46 104.75 263.97C106.33 262.53 108.13 261.04 109.75 263.11C109.16 265.16 108.56 267.2 107.97 269.25C108.73 270.44 109.49 271.63 110.25 272.82C112.42 272.3 114.58 271.79 116.75 271.28C116.63 272.6 116.5 273.93 116.38 275.25C114.69 276.51 114.05 276.24 113.25 278.44C111.52 277.8 110.48 275.55 108.72 277.25C109.19 279.76 112.05 278.45 111.44 282.75C112.21 283.11 112.98 283.47 113.75 283.82C114.73 283.3 115.7 282.77 116.68 282.25C117.03 283.23 117.39 284.2 117.75 285.18C122.96 282.95 128.35 287.95 133.75 282.14C136.8 283.58 141.09 285.82 140.98 289.25C140.28 289.58 139.58 289.92 138.88 290.25C138.89 290.91 138.69 292.04 139.13 292.62C139.62 293.28 140.75 293.06 141.47 293.28C143.01 293.75 144.26 295.45 145.77 296.25C145.64 297.08 145.5 297.92 145.37 298.75C147.2 300.15 148.74 301.33 147.49 303.75C149.29 304.9 150.02 307.3 149.75 309.37C145.28 312.66 142.16 308.67 137.7 309.75C137.38 310.76 137.07 311.77 136.75 312.79C133.85 312.84 135.34 311.27 134.75 309.09C130.4 309.77 129.93 315.07 133.5 317.25C130.5 317.75 127.5 318.25 124.5 318.75C125.17 320.03 125.83 320.22 127.25 320.5C128.13 317.53 132.43 318.58 134.25 320C135.91 317.46 147.83 319.22 151.5 318.25C152.94 316.74 155.68 309.96 159.23 311.5C158.9 312 158.58 312.5 158.25 313C158.38 313.58 158.52 314.17 158.65 314.75C157.44 316.66 156.51 316.94 154.75 317.73C153.32 318.36 152.13 319.87 150.56 320.28C146.45 321.37 141.98 320.8 137.85 321.68C128 323.79 118.19 323.85 108.26 325.12C107.41 325.23 107.02 325.77 106.23 325.96C102.2 326.91 91.01 326.5 86.76 325.89C82.44 325.27 78.01 324.25 73.75 323.41C72.62 320.56 70.91 318.11 70.16 315.18C69.83 313.91 70.2 312.55 69.98 311.27C67.83 298.33 69.72 284.33 70.53 271.25C71.04 263.14 71.56 254.86 71.6 246.75C71.64 240.65 71.12 233.74 72.46 227.76C72.65 226.95 73.23 226.53 73.39 225.73C74.4 220.46 73.47 214.14 73.63 208.75C74 196.64 74.64 184.32 75.53 172.25C75.78 168.91 77.06 165.59 77.42 162.25C78.07 156.14 77.12 149.88 77.47 143.75C77.86 136.99 78.95 130.09 79.56 123.25C80.45 113.29 80.29 103.01 80.63 93C81.02 81.16 81.46 69.31 81.75 57.47C81.92 50.46 81.76 43.47 82.59 36.5C82.98 35.17 83.36 33.83 83.75 32.5C83.81 31.33 83.87 30.17 83.94 29C84.21 27.92 84.48 26.83 84.76 25.75C84.17 25.08 83.59 24.42 83 23.75C85.69 21.22 83.94 16.3 88.95 12.92ZM304.75 16.5C302.6 16.64 300.57 17.29 298.25 17.5C297.17 17.6 294.6 17.33 295.25 17.61C297.34 16.82 299.27 18.38 301.23 17.54C301.84 17.28 301.97 16.49 302.52 16.27C302.77 16.16 306.16 16.46 304.75 16.5ZM301.25 19C304.26 19.24 302.97 21.61 304.11 23.64C304.42 24.2 305.51 24.76 306 25.25C304.92 28 303.83 30.75 302.75 33.5C300.58 32.98 298.42 32.45 296.25 31.93C295.47 30.75 294.89 29.85 295.25 28.5C293.87 27.79 293.15 27.53 293 25.75C291.75 26.06 290.5 26.36 289.25 26.67C288.51 25.86 287.78 25.06 287.04 24.25C290.86 22.33 295.7 25.99 297 24.75C296.12 24.08 295.25 23.42 294.37 22.75C295 22 295.62 21.25 296.25 20.5C297.33 21.42 298.42 22.33 299.5 23.25C301.6 22.59 300.87 20.89 301.25 19ZM271.4 37.18C273.2 38.16 270.91 43.89 269.94 45.25C270.57 46.69 271.71 50.98 269 50.75C269 51.92 269 53.08 269 54.25C269.96 54.25 270.93 54.25 271.89 54.25C270.48 58.28 266.27 66.94 271.75 69.21C272.3 71.49 271.36 71.16 270.69 72.86C270.16 74.19 270.1 78.14 270.24 79.62C270.35 80.72 271.47 82.33 270.72 83.51C270.33 84.11 269.08 83.8 268.5 83.75C268.5 86.25 268.5 88.75 268.5 91.25C270.49 91.07 269.3 92.07 269.65 93.17C270.09 94.54 271.06 93.88 270.5 95.75C271.04 96.08 271.58 96.42 272.12 96.75C271.7 99.34 272.75 99.94 272.25 102.1C271.5 101.98 270.75 101.87 270 101.75C269.06 104.06 270.72 103.14 268.5 104.75C268.67 105.92 268.83 107.08 269 108.25C269.95 108.42 270.91 108.58 271.86 108.75C271.32 109.42 270.77 110.08 270.22 110.75C271.06 111.67 271.91 112.58 272.75 113.5C275.92 114 279.08 114.5 282.25 115C282.33 111.58 282.42 108.17 282.5 104.75C280.22 104.04 279.62 100.82 278.29 98.75C280.44 98.67 282.6 98.58 284.75 98.5C285.46 96.51 287.07 97.04 288.72 96.25C289.1 94.36 289.6 91.66 289.07 89.76C288.54 87.89 287.44 87.78 288.25 85.5C289.92 85.08 291.6 84.67 293.27 84.25C293.26 86.32 292.9 87 295.25 86.54C295.18 87.61 295.1 88.68 295.03 89.75C297.44 90.95 299.26 90.59 299.02 93.75C297.73 94.08 296.44 94.42 295.15 94.75C296.02 95.78 296.88 96.82 297.75 97.85C298.42 97.43 299.08 97.02 299.75 96.6C300.08 98.29 300.42 99.97 300.75 101.66C302 100.86 303.25 100.05 304.5 99.25C304.42 97.68 304.33 96.11 304.25 94.55C302.92 95.03 301.58 95.52 300.25 96C300.65 92.9 303.31 89.49 299.2 87.75C299.05 86.44 298.9 85.12 298.75 83.81C301.11 84.96 301.26 84.14 303.25 82.46C306.94 83.03 307.34 81.31 310.36 80.1C311.36 79.7 313.29 80.22 314.14 79.46C314.63 79.03 314.89 77.88 315.25 77.28C316.42 78.86 317.58 80.43 318.75 82C319.92 82.67 321.08 83.33 322.25 84C324.79 83.17 323.58 85.07 325.27 85.78C325.88 86.04 325.78 85.32 326.75 86.05C325.26 86.04 329.04 85.18 329.29 85.25C330.42 85.53 330.55 87.22 330.5 86.25C331.17 84.41 330.35 84.41 328.75 85C329.38 83.74 331.8 81.44 333 82.25C333 79.45 331.79 72.33 334.9 71C335.14 71.75 335.39 72.5 335.64 73.25C332.98 75.58 336.67 81.38 336.79 84.75C336.87 86.84 336.35 89.12 336.68 91.17C336.86 92.31 337.65 93.15 337.77 94.34C337.99 96.63 337.38 98.96 337.61 101.24C337.73 102.53 338.64 103.53 338.76 104.87C338.98 107.29 338.46 109.77 338.71 112.18C338.82 113.21 339.51 113.97 339.74 114.97C340.23 117.19 339.91 119.74 339.94 122C337.83 122.92 338.79 128.17 338.98 130.25C339.58 136.8 339 143.66 339 150.25C339 152.94 338.15 156.26 340.98 157.25C340.82 159.25 340.66 161.25 340.5 163.25C342.38 163.03 342.82 164.29 343.94 165.5C343.71 166.83 343.48 168.17 343.25 169.5C343.17 171.08 343.08 172.67 343 174.25C343.11 174.33 343.23 174.42 343.34 174.5C343.1 177.83 342.86 181.17 342.62 184.5C342.61 184.83 342.6 185.17 342.59 185.5C342.57 186.67 342.55 187.83 342.53 189C342.53 189.5 342.52 190 342.51 190.5C342.51 190.67 342.51 190.83 342.51 191C342.48 191.19 342.45 191.38 342.42 191.58C342.32 193.38 342.23 195.19 342.13 197C342.13 197.17 342.12 197.33 342.11 197.5C342.05 199.33 341.98 201.17 341.91 203C341.89 205.42 341.87 207.83 341.85 210.25C342.01 210.33 342.17 210.42 342.34 210.5C342.33 211.5 342.33 212.5 342.33 213.5C342.37 214.58 342.41 215.67 342.45 216.75C342.8 216.83 343.15 216.92 343.5 217C343.67 217.17 343.83 217.33 344 217.5C344.16 217.67 344.32 217.83 344.47 218C344.67 218.15 344.87 218.3 345.06 218.45C345.29 218.57 345.52 218.68 345.75 218.8C345.78 218.7 345.82 218.6 345.85 218.5C346.1 217.83 346.36 217.17 346.62 216.5C346.72 216.5 346.82 216.5 346.92 216.5C346.82 218.35 346.28 220.9 348 221.75C347.97 224.83 347.95 227.92 347.92 231C347.7 231.29 347.47 231.58 347.25 231.87C346.83 231.94 346.42 232.02 346 232.1C345.84 232.23 345.68 232.37 345.53 232.5C345.23 234.33 344.93 236.17 344.64 238C344.59 238.16 344.55 238.31 344.5 238.47C343.72 240.5 345.88 243.72 346.37 245.82C347.57 250.94 345.77 256.98 346.92 261.5C346.92 261.83 346.92 262.17 346.92 262.5C346.83 262.58 346.75 262.67 346.67 262.75C346.67 264.75 346.68 266.75 346.68 268.75C346.8 268.83 346.91 268.9 347.02 268.98C347.19 269.32 347.36 269.66 347.53 270C347.3 270.25 347.08 270.5 346.85 270.75C347.36 271 347.87 271.25 348.38 271.5C348.51 272.48 348.63 273.46 348.75 274.44C348.8 270.79 348.85 267.15 348.9 263.5C348.94 263.08 348.97 262.67 349 262.25C349.21 262 349.41 261.75 349.62 261.5C349.72 261.5 349.82 261.5 349.91 261.5C349.34 269.95 349.59 278.78 349.82 287.25C349.95 291.64 350.61 296.45 349.89 300.77C349.31 304.3 350.99 310.97 347.5 313.25C349.55 317.63 338.3 324.63 334.5 325.04C334.17 325.22 333.83 325.41 333.5 325.59C325.45 325.93 317.99 329.32 309.75 329.39C303.04 329.44 295.47 328.95 288.86 327.79C283.91 326.92 279.3 325.64 274.25 325.31C272.22 322.75 266.23 321.23 264.83 318.88C262.41 314.79 260.88 301.5 260.15 296.24C257.14 274.53 258.78 252.87 258.25 230.97C257.75 232.18 257.25 233.39 256.75 234.6C256.7 233.71 257.6 223.78 257.76 223.38C257.97 222.85 258.71 222.32 259.03 221.75C258.03 217.7 257.48 209.04 261.33 207.25C262.45 202.37 263.44 197.2 263.77 192.21C263.99 188.99 263.63 183.81 265.5 181.25C263.89 177.01 265.3 172.11 265.98 167.73C267.1 160.62 266.5 153.05 266.5 145.75C266.5 141.88 266.3 138.35 265.67 134.75C264.67 129.02 265.66 122.32 265.63 116.5C265.57 106.42 265.46 96.33 265.45 86.25C265.45 78.74 264.87 70.97 265.78 63.53C266.14 61.47 266.76 59.79 266 57.75C266.22 55.64 266.45 53.53 266.67 51.42C266.66 51.26 266.65 51.11 266.63 50.96C267.26 49.32 267.89 47.68 268.53 46.04C268.67 45.86 268.82 45.68 268.96 45.5C268.99 45.17 269.02 44.83 269.06 44.5C269.16 42.63 269.66 39.39 271.25 38.5C271.3 38.06 271.35 37.62 271.4 37.18ZM330.25 62.71C331.72 64.47 332.2 69.99 330.85 71.75C330.97 71.93 331 72.28 331.21 72.28C331.58 72.28 331.24 71.28 330.87 71.22C330.86 71.22 330.3 72.33 330.22 72.4C329.72 72.85 329.4 72.89 328.75 72.92C325.85 70.03 326.37 64.32 330.25 62.71ZM333.25 101.07C333.13 101.21 332.9 102.05 332.39 102.3C331.82 102.58 326.72 102.79 325 103.25C326.65 104.9 328.38 104.78 330.5 105.75C331.66 104.23 333.25 103.33 333.25 101.07ZM304.25 133.5C302.14 133.99 300.87 134.33 299.25 135.83C297.75 135.55 296.25 135.28 294.75 135C295.2 137.68 296.67 137.55 299.02 138.75C299.58 142.57 301.89 141.36 300 144.25C306.2 145.09 305.04 137.17 304.25 133.5ZM270.25 149.5C270.25 153.83 270.25 158.17 270.25 162.5C270.25 158.17 270.25 153.83 270.25 149.5ZM9.97 158.04C11.56 158.03 13.16 158.01 14.75 158C15 158.14 15.25 158.28 15.5 158.42C22.33 158.42 29.17 158.42 36 158.42C38.51 159.88 42.39 159.5 45.25 159.5C51.95 159.5 58.41 159.58 64.75 159C67.91 158.71 71.79 159.91 74.64 158.75C74.68 156.12 74.71 153.49 74.75 150.86C73.89 151.06 73.14 151.75 72.44 151.93C68.41 152.99 58.71 151.69 54.08 151.79C59.76 150.36 66.03 152.51 71.74 151.45C72.86 151.25 73.53 150.56 74.75 150.4C76.3 152.24 75.87 156.47 75.25 158.78C69.97 162.46 63.03 161.09 56.61 161.26C40.6 161.66 26.48 161.64 10.6 159.75C10.39 159.18 10.18 158.61 9.97 158.04ZM5.57 157.16C6.05 157.26 6.52 157.36 7 157.45C6.52 157.36 6.05 157.26 5.57 157.16ZM9 157.93C8.5 157.8 7.99 157.67 7.49 157.54C7.99 157.67 8.5 157.8 9 157.93ZM9.97 158.04C9.81 158.03 9.66 158.01 9.5 157.99C9.66 158.01 9.81 158.03 9.97 158.04ZM100.25 186.28C99.48 188.1 98.72 189.93 97.95 191.75C98.88 192.18 99.82 192.62 100.75 193.05C101.48 191.62 102.2 190.18 102.93 188.75C102.04 187.93 101.14 187.1 100.25 186.28ZM293.75 206.78C292.02 208.82 292.77 213.53 293.25 216.21C294.73 216.21 296.22 216.21 297.7 216.21C297.72 213.89 297.12 212.51 294.95 211.75C294.55 210.09 294.15 208.44 293.75 206.78ZM259.27 227.36C258.84 228.16 258.41 228.95 257.99 229.75C258.41 229.95 258.84 230.16 259.27 230.36C259.27 229.36 259.27 228.36 259.27 227.36ZM263.08 307.5C263.15 307.5 263.21 307.5 263.28 307.5C263.21 307.5 263.15 307.5 263.08 307.5ZM275.5 322.42C275.54 322.31 275.57 322.2 275.61 322.09C275.07 321.98 274.54 321.86 274 321.75C273 320.92 272 320.08 271 319.25C269.17 318.42 267.33 317.58 265.5 316.75C265.54 320.35 272.31 322.59 275.5 322.42ZM284.25 324.96C284.17 325.22 284.08 325.49 284 325.75C284.08 325.83 284.17 325.92 284.25 326C284.33 325.92 284.42 325.83 284.5 325.75C284.42 325.49 284.33 325.22 284.25 324.96ZM289.25 326.5C289.17 326.58 289.08 326.67 289 326.75C289.08 326.83 289.17 326.92 289.25 327C289.33 326.92 289.42 326.83 289.5 326.75C289.42 326.67 289.33 326.58 289.25 326.5ZM320.75 326.4C320.67 326.68 320.58 326.97 320.5 327.25C320.58 327.33 320.67 327.42 320.75 327.5C320.83 327.42 320.92 327.33 321 327.25C320.92 326.97 320.83 326.68 320.75 326.4ZM300.25 327.5C300.17 327.58 300.08 327.67 300 327.75C300.08 327.83 300.17 327.92 300.25 328C300.33 327.92 300.42 327.83 300.5 327.75C300.42 327.67 300.33 327.58 300.25 327.5ZM316.75 327.5C316.67 327.58 316.58 327.67 316.5 327.75C316.58 327.83 316.67 327.92 316.75 328C316.92 328 317.08 328 317.25 328C317.33 327.92 317.42 327.83 317.5 327.75C317.42 327.67 317.33 327.58 317.25 327.5C317.08 327.5 316.92 327.5 316.75 327.5Z" fill="#568c85" fill-rule="evenodd" stroke="#568c85" stroke-width="0.25" stroke-linejoin="round"/>
<path d="M159.23 311.5C155.68 309.96 152.94 316.74 151.5 318.25C147.83 319.22 135.91 317.46 134.25 320C132.43 318.58 128.13 317.53 127.25 320.5C125.83 320.22 125.17 320.03 124.5 318.75C127.5 318.25 130.5 317.75 133.5 317.25C129.93 315.07 130.4 309.77 134.75 309.09C135.34 311.27 133.85 312.84 136.75 312.79C137.07 311.77 137.38 310.76 137.7 309.75C142.16 308.67 145.28 312.66 149.75 309.37C150.02 307.3 149.29 304.9 147.49 303.75C148.74 301.33 147.2 300.15 145.37 298.75C145.5 297.92 145.64 297.08 145.77 296.25C144.26 295.45 143.01 293.75 141.47 293.28C140.75 293.06 139.62 293.28 139.13 292.62C138.69 292.04 138.89 290.91 138.88 290.25C139.58 289.92 140.28 289.58 140.98 289.25C141.09 285.82 136.8 283.58 133.75 282.14C128.35 287.95 122.96 282.95 117.75 285.18C117.39 284.2 117.03 283.23 116.68 282.25C115.7 282.77 114.73 283.3 113.75 283.82C112.98 283.47 112.21 283.11 111.44 282.75C112.05 278.45 109.19 279.76 108.72 277.25C110.48 275.55 111.52 277.8 113.25 278.44C114.05 276.24 114.69 276.51 116.38 275.25C116.5 273.93 116.63 272.6 116.75 271.28C114.58 271.79 112.42 272.3 110.25 272.82C109.49 271.63 108.73 270.44 107.97 269.25C108.56 267.2 109.16 265.16 109.75 263.11C108.13 261.04 106.33 262.53 104.75 263.97C104.14 260.46 110.62 255.18 105.56 251.25C107.08 250.42 108.6 249.58 110.12 248.75C110.47 247.75 110.81 246.75 111.15 245.75C114.21 250.91 121.62 246.56 118.74 238.96C117.91 236.79 114.84 237.56 113.59 236.25C114.74 234.58 116.75 235.93 118.68 235.75C118.87 234.66 119.06 233.56 119.25 232.47C121.75 232.99 124.25 233.51 126.75 234.02C127.31 236.13 126.77 239.1 129.25 239.87C132.1 235.92 127.47 234.46 125.85 231.88C124.55 229.82 125.21 227.54 122.25 227.23C122.91 230.8 115.28 228.52 113.13 227.75C112.72 224.19 115.03 224.63 117.79 223.75C114.97 222.58 112.15 221.42 109.33 220.25C109.13 219.29 108.94 218.34 108.75 217.38C103.34 215.83 105.28 208.87 102.25 207.73C102.21 204.73 104.49 203.16 107.35 204.25C108.15 207.48 108.95 210.71 109.75 213.94C110.42 213.3 111.08 212.66 111.75 212.02C113.25 213.46 114.75 214.89 116.25 216.33C116.39 217.47 116.53 218.61 116.67 219.75C118.57 220.05 119.74 220.04 121.19 218.75C120.15 218.08 119.12 217.42 118.09 216.75C117.97 215.87 117.86 214.99 117.75 214.11C116.05 213.24 115.42 212.73 114.75 210.95C113.14 210.59 111.04 207.95 113.25 207.18C113.58 208.13 113.92 209.07 114.25 210.02C115.25 209.83 116.25 209.63 117.25 209.44C118.72 211.07 119.29 212.48 121.7 212.75C122.15 210.92 122.6 209.08 123.05 207.25C120.81 206.6 119.57 206.95 117.25 205.84C117.23 204.81 117.2 203.78 117.18 202.75C118.67 201.09 118.83 199.48 118.83 197.25C116.98 195.89 114.74 195.31 113.08 193.65C112.39 192.96 111.56 190.84 110.66 190.56C109.78 190.29 109.06 191.23 108.56 191.75C108.87 192.58 109.19 193.42 109.5 194.25C108.42 194.87 107.33 195.48 106.25 196.1C105.55 194.98 104.86 193.87 104.16 192.75C104.61 192.25 105.05 191.75 105.5 191.25C103.84 187.62 102 184.47 102.25 180.42C103.72 180.2 105.19 179.97 106.66 179.75C107.22 176.52 106.51 174.95 104.1 173.25C104.06 171.58 104.02 169.92 103.97 168.25C101.09 167.33 96.03 167.92 94.45 164.75C98.34 164.64 103.71 166.17 107.3 163.75C106.68 163.25 106.06 162.75 105.44 162.25C108.89 160.64 109.02 158.03 109.04 154.25C106.99 152.8 103.55 152.93 103.01 150.25C100.62 149.43 99.76 147.4 100.25 144.97C101.08 145.24 101.92 145.5 102.75 145.77C106.15 143.47 108.23 147.41 111.85 147.25C112.17 146.55 112.71 145.87 112.09 145.19C110.95 143.91 108.35 144.46 107.03 143.23C105.3 141.63 105.86 138.88 103.75 137.9C103.39 139.85 103.02 141.8 102.66 143.75C102.06 142.58 101.46 141.42 100.87 140.25C97.96 139.45 97.82 136.21 96.52 133.75C97.71 133.42 98.9 133.08 100.09 132.75C98.18 127.49 103.3 123.4 105.13 118.75C105.01 117.47 104.88 116.2 104.75 114.92C106.42 114.34 108.08 113.75 109.75 113.16C110.78 111.71 111.08 111.23 112.87 110.75C112.02 109.24 111.03 104.04 112.19 102.41C112.7 101.7 114.23 101.94 114.92 101.25C113.42 100.48 111.5 100.37 110.12 99.6C109.11 99.04 108.66 97.56 107.75 96.82C106.75 97.3 105.75 97.79 104.75 98.28C104.23 97.27 103.71 96.26 103.19 95.25C104.39 92.38 106.7 92.06 109.54 92.25C110.11 93.52 110.68 94.79 111.25 96.07C113.08 96.25 114.92 96.43 116.75 96.61C117.44 93.1 114.72 93.45 112.46 91.75C112.9 90.58 113.35 89.42 113.79 88.25C113.21 87.08 112.62 85.92 112.03 84.75C112.87 83.43 113.7 79.96 112.74 78.46C112.12 77.5 111.51 78.11 111.17 76.75C112.09 76.42 113.01 76.08 113.93 75.75C113.84 72.91 111.23 72.56 110.18 70.25C111 69.92 111.82 69.58 112.64 69.25C112.85 68.09 113.05 66.93 113.25 65.77C114.6 65.76 115.94 65.76 117.29 65.75C115.95 62.21 109.31 63.5 108.11 60.25C109.82 59.12 111.44 60.49 113.25 60.78C113.25 59.44 113.25 58.1 113.25 56.76C114.5 56.92 115.75 57.09 117 57.25C118.05 54.54 115.14 54.25 113.17 53.1C109.07 50.71 106.75 46.56 101.75 46C100.41 41.63 95.15 41.98 91.28 41.75C91.1 39.23 90.93 36.71 90.75 34.19C89.92 34.39 89.08 34.58 88.25 34.77C88.78 33.6 89.31 32.42 89.84 31.25C89.01 30.58 88.18 29.92 87.35 29.25C88.14 27.77 88.59 27.95 90.25 27.92C91.4 24.59 90.11 23.12 89 20.25C89.5 18.08 90 15.92 90.5 13.75C89.98 13.47 89.46 13.2 88.95 12.92C96.65 0.12 116.52 0.92 128.41 6.25C135.16 9.28 136.67 7.44 139.24 15.25C141.08 15.93 141.24 16.28 141.75 18.2C143.13 18.78 143.9 19.09 145.25 18.42C149.75 27.1 154.61 36.11 156.7 45.62C157.18 47.83 156.66 50.48 156.71 52.73C156.89 60.07 156.75 67.41 156.72 74.75C156.65 89.08 156.84 103.42 156.81 117.75C156.8 123.27 157.95 131.55 156.8 136.75C156.52 138 155.72 138.39 155.67 139.75C155.46 144.66 155.52 149.88 156.2 154.75C156.56 157.3 157.6 159.54 157.83 162.25C158.32 168.3 158.04 174.24 159.15 180.25C159.55 182.47 161.36 184.13 161.74 186.47C162.1 188.61 161.43 190.88 161.88 193C163.23 199.48 162.88 206.08 163.84 212.64C165.29 222.46 165.43 232.36 166.47 242.25C167.04 247.68 166.54 253.3 166.52 258.75C166.49 264.88 167.15 271.13 166.77 277.21C166.4 283.25 165.49 289.28 164.89 295.27C164.74 296.78 165.14 298.56 164.73 300.03C164.26 301.74 160.14 311.23 159.23 311.5ZM323.01 10.5C323.92 11.9 324.45 12.37 324.54 14.25C325.11 14.62 325.68 15 326.25 15.37C326.06 16.66 325.88 17.96 325.69 19.25C326.49 19.75 327.29 20.25 328.09 20.75C328.64 25.71 329.2 30.68 329.75 35.64C331.38 33.77 330.38 29.85 330.97 27.25C331.3 27.5 331.64 27.75 331.97 28C332.54 38.47 333.36 48.76 334.09 59.25C334.37 63.23 335.5 66.87 334.9 71C331.79 72.33 333 79.45 333 82.25C331.8 81.44 329.38 83.74 328.75 85C330.35 84.41 331.17 84.41 330.5 86.25C330.55 87.22 330.42 85.53 329.29 85.25C329.04 85.18 325.26 86.04 326.75 86.05C325.78 85.32 325.88 86.04 325.27 85.78C323.58 85.07 324.79 83.17 322.25 84C321.08 83.33 319.92 82.67 318.75 82C317.58 80.43 316.42 78.86 315.25 77.28C314.89 77.88 314.63 79.03 314.14 79.46C313.29 80.22 311.36 79.7 310.36 80.1C307.34 81.31 306.94 83.03 303.25 82.46C301.26 84.14 301.11 84.96 298.75 83.81C298.9 85.12 299.05 86.44 299.2 87.75C303.31 89.49 300.65 92.9 300.25 96C301.58 95.52 302.92 95.03 304.25 94.55C304.33 96.11 304.42 97.68 304.5 99.25C303.25 100.05 302 100.86 300.75 101.66C300.42 99.97 300.08 98.29 299.75 96.6C299.08 97.02 298.42 97.43 297.75 97.85C296.88 96.82 296.02 95.78 295.15 94.75C296.44 94.42 297.73 94.08 299.02 93.75C299.26 90.59 297.44 90.95 295.03 89.75C295.1 88.68 295.18 87.61 295.25 86.54C292.9 87 293.26 86.32 293.27 84.25C291.6 84.67 289.92 85.08 288.25 85.5C287.44 87.78 288.54 87.89 289.07 89.76C289.6 91.66 289.1 94.36 288.72 96.25C287.07 97.04 285.46 96.51 284.75 98.5C282.6 98.58 280.44 98.67 278.29 98.75C279.62 100.82 280.22 104.04 282.5 104.75C282.42 108.17 282.33 111.58 282.25 115C279.08 114.5 275.92 114 272.75 113.5C271.91 112.58 271.06 111.67 270.22 110.75C270.77 110.08 271.32 109.42 271.86 108.75C270.91 108.58 269.95 108.42 269 108.25C268.83 107.08 268.67 105.92 268.5 104.75C270.72 103.14 269.06 104.06 270 101.75C270.75 101.87 271.5 101.98 272.25 102.1C272.75 99.94 271.7 99.34 272.12 96.75C271.58 96.42 271.04 96.08 270.5 95.75C271.06 93.88 270.09 94.54 269.65 93.17C269.3 92.07 270.49 91.07 268.5 91.25C268.5 88.75 268.5 86.25 268.5 83.75C269.08 83.8 270.33 84.11 270.72 83.51C271.47 82.33 270.35 80.72 270.24 79.62C270.1 78.14 270.16 74.19 270.69 72.86C271.36 71.16 272.3 71.49 271.75 69.21C266.27 66.94 270.48 58.28 271.89 54.25C270.93 54.25 269.96 54.25 269 54.25C269 53.08 269 51.92 269 50.75C271.71 50.98 270.57 46.69 269.94 45.25C270.91 43.89 273.2 38.16 271.4 37.18C276.18 23.58 291.64 16.23 303.31 10.33C306.36 8.79 310.93 5.72 314.77 6.39C316.81 6.75 323.04 7.54 320.5 9.75C321.82 9.71 322.19 9.15 323.01 10.5ZM323.25 12.5C321.02 11.39 319.2 11.01 316.75 11.5C317.17 11.89 317.88 11.82 318.48 12.27C319.68 13.16 319.58 16.4 320 17.75C321.78 18.09 323.18 16.99 324.5 18.25C324.27 21.22 319.96 21.53 321.25 28C322.21 28 323.64 27.73 324.48 28.27C326.46 29.53 326.81 34.13 326 35.75C327.2 37 327.63 37.69 329 38.75C329.03 41.43 329.24 43.34 328.75 46C330.92 43.74 329.41 39.69 330.5 36.75C329.96 36.59 329.12 36.48 328.77 35.98C327.85 34.7 328.78 32.25 328.48 30.77C328.34 30.06 327.8 29.79 327.59 29.16C326.92 27.08 327.5 23.94 327.5 21.75C326.45 21.08 325.4 20.42 324.35 19.75C324.73 18.75 325.12 17.75 325.5 16.75C324.02 15.27 323.66 14.53 323.25 12.5ZM304.75 16.5C306.16 16.46 302.77 16.16 302.52 16.27C301.97 16.49 301.84 17.28 301.23 17.54C299.27 18.38 297.34 16.82 295.25 17.61C294.6 17.33 297.17 17.6 298.25 17.5C300.57 17.29 302.6 16.64 304.75 16.5ZM301.25 19C300.87 20.89 301.6 22.59 299.5 23.25C298.42 22.33 297.33 21.42 296.25 20.5C295.62 21.25 295 22 294.37 22.75C295.25 23.42 296.12 24.08 297 24.75C295.7 25.99 290.86 22.33 287.04 24.25C287.78 25.06 288.51 25.86 289.25 26.67C290.5 26.36 291.75 26.06 293 25.75C293.15 27.53 293.87 27.79 295.25 28.5C294.89 29.85 295.47 30.75 296.25 31.93C298.42 32.45 300.58 32.98 302.75 33.5C303.83 30.75 304.92 28 306 25.25C305.51 24.76 304.42 24.2 304.11 23.64C302.97 21.61 304.26 19.24 301.25 19ZM330.25 62.71C326.37 64.32 325.85 70.03 328.75 72.92C329.4 72.89 329.72 72.85 330.22 72.4C330.3 72.33 330.86 71.22 330.87 71.22C331.24 71.28 331.58 72.28 331.21 72.28C331 72.28 330.97 71.93 330.85 71.75C332.2 69.99 331.72 64.47 330.25 62.71ZM333.25 101.07C333.25 103.33 331.66 104.23 330.5 105.75C328.38 104.78 326.65 104.9 325 103.25C326.72 102.79 331.82 102.58 332.39 102.3C332.9 102.05 333.13 101.21 333.25 101.07ZM304.25 133.5C305.04 137.17 306.2 145.09 300 144.25C301.89 141.36 299.58 142.57 299.02 138.75C296.67 137.55 295.2 137.68 294.75 135C296.25 135.28 297.75 135.55 299.25 135.83C300.87 134.33 302.14 133.99 304.25 133.5ZM343.87 173.58C343.7 173.89 343.52 174.19 343.34 174.5C343.52 174.19 343.7 173.89 343.87 173.58ZM344.5 173.58C344.47 173.64 344.44 173.69 344.4 173.75C344.51 174 344.63 174.25 344.74 174.5C344.66 174.19 344.58 173.89 344.5 173.58ZM344.27 180C344.27 185.5 344.27 191 344.27 196.5C344.27 191 344.27 185.5 344.27 180ZM342.62 184.5C342.74 184.75 342.87 185 343 185.25C342.86 185.33 342.73 185.42 342.59 185.5C342.6 185.17 342.61 184.83 342.62 184.5ZM100.25 186.28C101.14 187.1 102.04 187.93 102.93 188.75C102.2 190.18 101.48 191.62 100.75 193.05C99.82 192.62 98.88 192.18 97.95 191.75C98.72 189.93 99.48 188.1 100.25 186.28ZM342.53 189C342.69 189.42 342.84 189.83 343 190.25C342.84 190.33 342.67 190.42 342.51 190.5C342.52 190 342.53 189.5 342.53 189ZM342.51 191C342.67 191.08 342.84 191.17 343 191.25C342.92 191.83 342.83 192.42 342.75 193C342.64 192.53 342.53 192.05 342.42 191.58C342.45 191.38 342.48 191.19 342.51 191ZM342.75 193.5C342.83 193.58 342.92 193.67 343 193.75C342.92 193.83 342.83 193.92 342.75 194C342.67 193.92 342.58 193.83 342.5 193.75C342.58 193.67 342.67 193.58 342.75 193.5ZM342.13 197C342.42 197.08 342.71 197.17 343 197.25C342.7 197.33 342.41 197.42 342.11 197.5C342.12 197.33 342.13 197.17 342.13 197ZM344.25 197C344.33 197.08 344.4 197.17 344.48 197.25C344.48 197.42 344.48 197.58 344.48 197.75C344.4 197.83 344.33 197.92 344.25 198C344.17 197.92 344.08 197.83 344 197.75C344 197.58 344 197.42 344 197.25C344.08 197.17 344.17 197.08 344.25 197ZM341.91 203C342.1 203.08 342.3 203.17 342.5 203.25C342.45 205.67 342.39 208.08 342.34 210.5C342.17 210.42 342.01 210.33 341.85 210.25C341.87 207.83 341.89 205.42 341.91 203ZM345.14 203C345.12 203.25 345.1 203.5 345.07 203.75C345.14 203.83 345.21 203.92 345.28 204C345.23 203.67 345.19 203.33 345.14 203ZM345.06 204.66C344.96 204.94 344.85 205.22 344.75 205.5C344.85 205.22 344.96 204.94 345.06 204.66ZM345.5 204.58C345.58 204.72 345.66 204.86 345.74 205C345.66 204.86 345.58 204.72 345.5 204.58ZM345.72 206.07C345.7 208.55 345.67 211.02 345.64 213.5C345.43 213.42 345.21 213.33 345 213.25C344.83 210.92 344.67 208.58 344.5 206.25C344.91 206.19 345.32 206.13 345.72 206.07ZM293.75 206.78C294.15 208.44 294.55 210.09 294.95 211.75C297.12 212.51 297.72 213.89 297.7 216.21C296.22 216.21 294.73 216.21 293.25 216.21C292.77 213.53 292.02 208.82 293.75 206.78ZM342.33 213.5C342.55 213.58 342.78 213.67 343 213.75C343.17 214.83 343.33 215.92 343.5 217C343.15 216.92 342.8 216.83 342.45 216.75C342.41 215.67 342.37 214.58 342.33 213.5ZM345.64 213.5C345.79 213.67 345.94 213.83 346.09 214C345.97 214.17 345.86 214.33 345.75 214.5C345.71 214.17 345.68 213.83 345.64 213.5ZM346.62 216.5C346.36 217.17 346.1 217.83 345.85 218.5C345.59 218.48 345.32 218.47 345.06 218.45C345.21 218.22 345.35 217.98 345.5 217.75C345.75 216.84 346 215.93 346.25 215.02C346.37 215.51 346.49 216.01 346.62 216.5ZM343.5 217C343.67 217.17 343.83 217.33 344 217.5C343.83 217.33 343.67 217.17 343.5 217ZM344 217.5C344.16 217.67 344.32 217.83 344.47 218C344.32 217.83 344.16 217.67 344 217.5ZM346 232.1C345.84 232.23 345.68 232.37 345.53 232.5C345.68 232.37 345.84 232.23 346 232.1ZM348.15 232.5C348.11 232.72 348.08 232.94 348.04 233.16C348.08 232.94 348.11 232.72 348.15 232.5ZM348.04 233.16C348.07 233.44 348.1 233.72 348.12 234C348 234.33 347.87 234.67 347.75 235C347.67 234.42 347.58 233.83 347.5 233.25C347.68 233.22 347.86 233.19 348.04 233.16ZM348.5 234.08C348.57 234.22 348.65 234.36 348.72 234.5C348.65 234.36 348.57 234.22 348.5 234.08ZM348.98 239C348.98 241.83 348.98 244.67 348.98 247.5C348.66 247.25 348.33 247 348 246.75C347.92 243.17 347.83 239.58 347.75 236C348.16 237 348.57 238 348.98 239ZM344.64 238C344.59 238.16 344.55 238.31 344.5 238.47C344.55 238.31 344.59 238.16 344.64 238ZM347.25 247C347.33 247.08 347.42 247.17 347.5 247.25C347.42 247.33 347.33 247.42 347.25 247.5C347.17 247.42 347.08 247.33 347 247.25C347.08 247.17 347.17 247.08 347.25 247ZM347.75 248.5C348.04 248.58 348.33 248.67 348.62 248.75C348.33 248.83 348.04 248.92 347.75 249C347.67 248.92 347.58 248.83 347.5 248.75C347.58 248.67 347.67 248.58 347.75 248.5ZM349.14 249.5C349.13 250.33 349.12 251.17 349.11 252C348.99 252.33 348.87 252.67 348.75 253C348.67 252.25 348.58 251.5 348.5 250.75C348.71 250.33 348.93 249.92 349.14 249.5ZM349.5 252.08C349.5 252.31 349.5 252.53 349.5 252.75C349.57 252.83 349.64 252.92 349.72 253C349.64 252.69 349.57 252.39 349.5 252.08ZM349.62 261.5C349.41 261.75 349.21 262 349 262.25C348.97 262.67 348.94 263.08 348.9 263.5C348.85 260.67 348.8 257.83 348.75 255C349.04 257.17 349.33 259.33 349.62 261.5ZM346.92 262.5C346.92 262.17 346.92 261.83 346.92 261.5C347.03 261.17 347.14 260.83 347.25 260.5C347.25 261.83 347.25 263.17 347.25 264.5C347.14 263.83 347.03 263.17 346.92 262.5ZM347.02 268.98C347.1 268.82 347.17 268.66 347.25 268.5C347.17 268.66 347.1 268.82 347.02 268.98ZM347.53 270C347.85 270.25 348.18 270.5 348.5 270.75C348.46 271 348.42 271.25 348.38 271.5C347.87 271.25 347.36 271 346.85 270.75C347.08 270.5 347.3 270.25 347.53 270Z" fill="#7bb2ab" fill-rule="evenodd" stroke="#7bb2ab" stroke-width="0.25" stroke-linejoin="round"/>
<path d="M159.85 149.61C161.95 150.31 161.73 153.85 162.36 155.75C168.94 156.38 175.65 155.5 182.25 155.96C183.51 156.04 184.56 156.67 185.8 156.78C192.17 157.34 198.85 156.79 205.25 156.79C211.32 156.79 217.69 157.34 223.73 156.79C231.79 156.04 240.02 156.75 248.25 156.88C253.01 156.96 258.39 156.22 263 157.42C263.19 157.53 263.39 157.64 263.58 157.75C262.81 159.22 262.1 159.51 260.5 159.9C255.5 159.85 250.5 159.8 245.5 159.75C249.18 159.86 252.85 159.97 256.53 160.08C250.22 161.57 238.68 160.49 231.75 160.61C217.24 160.84 202.77 161.69 188.25 161.69C182.41 161.69 176.83 161.47 171.17 160.73C168.68 160.41 165.1 161.59 162.79 160.55C158.56 158.64 159.7 153.26 159.85 149.61ZM345.75 149.8C347.49 150.94 347.18 151.92 347.75 153.77C360.75 153.77 373.75 153.9 386.75 153.9C390.08 153.9 399.29 152.94 401.62 154.75C400.96 157.69 391.38 157.46 388.25 157.46C374.07 157.43 359.97 158.72 345.75 158.72C344.42 156.18 343.97 152.12 345.75 149.8ZM36 158.42C29.17 158.42 22.33 158.42 15.5 158.42C15.25 158.28 15 158.14 14.75 158C13.16 158.01 11.56 158.03 9.97 158.04C9.81 158.03 9.66 158.01 9.5 157.99C9.33 157.97 9.17 157.95 9 157.93C8.5 157.8 7.99 157.67 7.49 157.54C7.33 157.51 7.16 157.48 7 157.45C6.52 157.36 6.05 157.26 5.57 157.16C5.47 156.47 5.36 155.78 5.25 155.1C7.06 154.62 8.52 154.23 10.25 155C12.1 153.42 20.93 153.11 23.75 153.1C33.83 153.07 44.09 153.39 54.08 151.79C58.71 151.69 68.41 152.99 72.44 151.93C73.14 151.75 73.89 151.06 74.75 150.86C74.71 153.49 74.68 156.12 74.64 158.75C71.79 159.91 67.91 158.71 64.75 159C58.41 159.58 51.95 159.5 45.25 159.5C42.39 159.5 38.51 159.88 36 158.42ZM251 178.45C250.92 178.01 250.83 177.57 250.75 177.13C246.18 177.45 238.92 175.8 235 177.75C237.36 179.58 247.06 178.36 250.51 178.58C248.95 180.07 246.29 179.48 244.25 179.49C239.25 179.52 234.25 179.51 229.25 179.51C208.75 179.51 188.25 179.51 167.75 179.51C166.99 177.71 165.27 175.91 165.85 173.76C167.37 168.13 178.59 170 182.75 170C187.15 170 191.74 169.65 196.12 170.23C205.73 171.52 214.87 172.86 224.75 172.96C227.09 172.99 229.95 173.41 232.23 173.03C233.13 172.88 233.58 171.99 234.39 171.75C238.49 170.5 253.15 170.7 254.91 175.25C253.74 176.49 252.72 178.34 251 178.45ZM216 177.75C212.89 176.12 196.24 177.11 192.5 178.25C198.08 179.37 210.62 179.35 216 177.75ZM188.9 187.21C193.94 186.15 199.35 188.19 204.32 188.8C213.08 189.86 223.88 188.79 232.75 188.68C236.36 188.63 245.33 186.73 248 188.89C243.18 190.69 237.96 191.9 233.11 193.23C229.28 194.29 216.95 193.27 212.25 193.27C207.72 193.27 201.75 194.32 197.36 193.24C194.89 192.63 192.27 191.64 189.75 191.27C189.47 189.92 189.19 188.57 188.9 187.21ZM229.5 191.99C226.07 189.84 214.97 191.44 210.25 191.16C207.76 191.01 205.33 190.58 203.5 191.99C212.17 191.99 220.83 191.99 229.5 191.99Z" fill="#8d6b5b" fill-rule="evenodd" stroke="#8d6b5b" stroke-width="0.25" stroke-linejoin="round"/>
<path d="M192.58 146.95C209.07 147.6 225.37 147 241.75 147C241.63 148.5 243.37 149.64 244.75 149.92C248 150.57 257.67 150.8 260.5 149.63C261.08 149.76 261.67 149.88 262.25 150C262.58 151.17 262.92 152.33 263.25 153.5C263.33 151.52 263.42 149.55 263.5 147.57C263.67 150.46 263.83 153.36 264 156.25C263.67 156.64 263.33 157.03 263 157.42C258.39 156.22 253.01 156.96 248.25 156.88C240.02 156.75 231.79 156.04 223.73 156.79C217.69 157.34 211.32 156.79 205.25 156.79C198.85 156.79 192.17 157.34 185.8 156.78C184.56 156.67 183.51 156.04 182.25 155.96C175.65 155.5 168.94 156.38 162.36 155.75C161.73 153.85 161.95 150.31 159.85 149.61C160.15 149.15 160.45 148.69 160.75 148.23C171.36 147.81 181.97 147.38 192.58 146.95ZM36 158.42C29.17 158.42 22.33 158.42 15.5 158.42C22.33 158.42 29.17 158.42 36 158.42ZM216 177.75C210.62 179.35 198.08 179.37 192.5 178.25C196.24 177.11 212.89 176.12 216 177.75ZM251 178.45C250.84 178.49 250.67 178.54 250.51 178.58C247.06 178.36 237.36 179.58 235 177.75C238.92 175.8 246.18 177.45 250.75 177.13C250.83 177.57 250.92 178.01 251 178.45ZM248 188.89C245.33 186.73 236.36 188.63 232.75 188.68C223.88 188.79 213.08 189.86 204.32 188.8C199.35 188.19 193.94 186.15 188.9 187.21C189.13 186.56 189.36 185.9 189.59 185.25C202.12 181.72 224.71 181.58 237.29 184.91C241.02 185.9 246.3 185.21 249.25 187.75C248.84 188.13 248.42 188.51 248 188.89ZM229.5 191.99C220.83 191.99 212.17 191.99 203.5 191.99C205.33 190.58 207.76 191.01 210.25 191.16C214.97 191.44 226.07 189.84 229.5 191.99ZM275.61 322.09C275.57 322.2 275.54 322.31 275.5 322.42C272.31 322.59 265.54 320.35 265.5 316.75C267.33 317.58 269.17 318.42 271 319.25C272 320.08 273 320.92 274 321.75C274.54 321.86 275.07 321.98 275.61 322.09Z" fill="#c29f8d" fill-rule="evenodd" stroke="#c29f8d" stroke-width="0.25" stroke-linejoin="round"/>
<path d="M323.01 10.5C326.46 9.53 326.92 13.27 328.2 15.2C330.4 18.53 332.13 23.67 331.97 28C331.64 27.75 331.3 27.5 330.97 27.25C330.38 29.85 331.38 33.77 329.75 35.64C329.2 30.68 328.64 25.71 328.09 20.75C327.29 20.25 326.49 19.75 325.69 19.25C325.88 17.96 326.06 16.66 326.25 15.37C325.68 15 325.11 14.62 324.54 14.25C324.45 12.37 323.92 11.9 323.01 10.5ZM76.75 50.22C78.19 51.63 77.76 56.91 76.97 58.75C75.61 57.38 75.82 51.95 76.75 50.22ZM265.91 50.97C266.15 50.96 266.39 50.96 266.63 50.96C266.65 51.11 266.66 51.26 266.67 51.42C266.44 51.44 266.2 51.47 265.97 51.5C265.95 51.32 265.93 51.15 265.91 50.97ZM339.94 122C342.02 130.88 341.45 140.11 342.21 149.23C342.63 154.35 344.83 160.31 343.94 165.5C342.82 164.29 342.38 163.03 340.5 163.25C340.66 161.25 340.82 159.25 340.98 157.25C338.15 156.26 339 152.94 339 150.25C339 143.66 339.58 136.8 338.98 130.25C338.79 128.17 337.83 122.92 339.94 122ZM262 147.9C262.17 148.02 262.33 148.13 262.5 148.25C261.92 148.5 261.33 148.75 260.75 149C260.67 149.21 260.58 149.42 260.5 149.63C257.67 150.8 248 150.57 244.75 149.92C243.37 149.64 241.63 148.5 241.75 147C225.37 147 209.07 147.6 192.58 146.95C198.63 144.86 206.88 146.06 213.25 146.06C226.68 146.06 240.3 145.24 253.66 146.75C249.88 147.08 246.1 147.42 242.31 147.75C248.87 149.11 255.43 149.03 262 147.9ZM343.87 173.58C344.08 173.58 344.29 173.58 344.5 173.58C344.58 173.89 344.66 174.19 344.74 174.5C344.87 184 345 193.5 345.14 203C345.19 203.33 345.23 203.67 345.28 204C345.21 204.22 345.13 204.44 345.06 204.66C344.96 204.94 344.85 205.22 344.75 205.5C344.85 205.22 344.96 204.94 345.06 204.66C345.21 204.64 345.35 204.61 345.5 204.58C345.58 204.72 345.66 204.86 345.74 205C345.73 205.36 345.73 205.71 345.72 206.07C345.32 206.13 344.91 206.19 344.5 206.25C344.67 208.58 344.83 210.92 345 213.25C345.21 213.33 345.43 213.42 345.64 213.5C345.68 213.83 345.71 214.17 345.75 214.5C345.86 214.33 345.97 214.17 346.09 214C346.36 214.08 346.63 214.17 346.9 214.25C346.91 215 346.91 215.75 346.92 216.5C346.82 216.5 346.72 216.5 346.62 216.5C346.49 216.01 346.37 215.51 346.25 215.02C346 215.93 345.75 216.84 345.5 217.75C345.35 217.98 345.21 218.22 345.06 218.45C344.87 218.3 344.67 218.15 344.47 218C344.32 217.83 344.16 217.67 344 217.5C343.83 217.33 343.67 217.17 343.5 217C343.33 215.92 343.17 214.83 343 213.75C342.78 213.67 342.55 213.58 342.33 213.5C342.33 212.5 342.33 211.5 342.34 210.5C342.39 208.08 342.45 205.67 342.5 203.25C342.3 203.17 342.1 203.08 341.91 203C341.98 201.17 342.05 199.33 342.11 197.5C342.41 197.42 342.7 197.33 343 197.25C342.71 197.17 342.42 197.08 342.13 197C342.23 195.19 342.32 193.38 342.42 191.58C342.53 192.05 342.64 192.53 342.75 193C342.83 192.42 342.92 191.83 343 191.25C342.84 191.17 342.67 191.08 342.51 191C342.51 190.83 342.51 190.67 342.51 190.5C342.67 190.42 342.84 190.33 343 190.25C342.84 189.83 342.69 189.42 342.53 189C342.55 187.83 342.57 186.67 342.59 185.5C342.73 185.42 342.86 185.33 343 185.25C342.87 185 342.74 184.75 342.62 184.5C342.86 181.17 343.1 177.83 343.34 174.5C343.52 174.19 343.7 173.89 343.87 173.58ZM344.27 180C344.27 185.5 344.27 191 344.27 196.5C344.27 191 344.27 185.5 344.27 180ZM342.75 193.5C342.67 193.58 342.58 193.67 342.5 193.75C342.58 193.83 342.67 193.92 342.75 194C342.83 193.92 342.92 193.83 343 193.75C342.92 193.67 342.83 193.58 342.75 193.5ZM344.25 197C344.17 197.08 344.08 197.17 344 197.25C344 197.42 344 197.58 344 197.75C344.08 197.83 344.17 197.92 344.25 198C344.33 197.92 344.4 197.83 344.48 197.75C344.48 197.58 344.48 197.42 344.48 197.25C344.4 197.17 344.33 197.08 344.25 197ZM345.06 218.45C345.32 218.47 345.59 218.48 345.85 218.5C345.82 218.6 345.78 218.7 345.75 218.8C345.52 218.68 345.29 218.57 345.06 218.45ZM347.92 231C348 231.5 348.07 232 348.15 232.5C348.11 232.72 348.08 232.94 348.04 233.16C347.86 233.19 347.68 233.22 347.5 233.25C347.58 233.83 347.67 234.42 347.75 235C347.87 234.67 348 234.33 348.12 234C348.25 234.03 348.37 234.06 348.5 234.08C348.57 234.22 348.65 234.36 348.72 234.5C348.81 236 348.89 237.5 348.98 239C348.57 238 348.16 237 347.75 236C347.83 239.58 347.92 243.17 348 246.75C348.33 247 348.66 247.25 348.98 247.5C349.04 248.17 349.09 248.83 349.14 249.5C348.93 249.92 348.71 250.33 348.5 250.75C348.58 251.5 348.67 252.25 348.75 253C348.87 252.67 348.99 252.33 349.11 252C349.24 252.03 349.37 252.06 349.5 252.08C349.57 252.39 349.64 252.69 349.72 253C349.78 255.83 349.85 258.67 349.91 261.5C349.82 261.5 349.72 261.5 349.62 261.5C349.33 259.33 349.04 257.17 348.75 255C348.8 257.83 348.85 260.67 348.9 263.5C348.85 267.15 348.8 270.79 348.75 274.44C348.63 273.46 348.51 272.48 348.38 271.5C348.42 271.25 348.46 271 348.5 270.75C348.18 270.5 347.85 270.25 347.53 270C347.36 269.66 347.19 269.32 347.02 268.98C347.1 268.82 347.17 268.66 347.25 268.5C347.17 268.66 347.1 268.82 347.02 268.98C346.91 268.9 346.8 268.83 346.68 268.75C346.68 266.75 346.67 264.75 346.67 262.75C346.75 262.67 346.83 262.58 346.92 262.5C347.03 263.17 347.14 263.83 347.25 264.5C347.25 263.17 347.25 261.83 347.25 260.5C347.14 260.83 347.03 261.17 346.92 261.5C345.77 256.98 347.57 250.94 346.37 245.82C345.88 243.72 343.72 240.5 344.5 238.47C344.55 238.31 344.59 238.16 344.64 238C344.93 236.17 345.23 234.33 345.53 232.5C345.68 232.37 345.84 232.23 346 232.1C346.42 232.02 346.83 231.94 347.25 231.87C347.47 231.58 347.7 231.29 347.92 231ZM347.25 247C347.17 247.08 347.08 247.17 347 247.25C347.08 247.33 347.17 247.42 347.25 247.5C347.33 247.42 347.42 247.33 347.5 247.25C347.42 247.17 347.33 247.08 347.25 247ZM347.75 248.5C347.67 248.58 347.58 248.67 347.5 248.75C347.58 248.83 347.67 248.92 347.75 249C348.04 248.92 348.33 248.83 348.62 248.75C348.33 248.67 348.04 248.58 347.75 248.5ZM65.75 294.03C67.54 295.41 67.17 302.18 66.25 304.35C64.8 302.97 65.02 296.03 65.75 294.03ZM263.08 307.5C263.15 307.5 263.21 307.5 263.28 307.5C263.21 307.5 263.15 307.5 263.08 307.5ZM275.61 322.09C275.57 322.2 275.54 322.31 275.5 322.42C275.54 322.31 275.57 322.2 275.61 322.09ZM334.5 325.04C334.17 325.22 333.83 325.41 333.5 325.59C333.83 325.41 334.17 325.22 334.5 325.04ZM284.25 324.96C284.33 325.22 284.42 325.49 284.5 325.75C284.42 325.83 284.33 325.92 284.25 326C284.17 325.92 284.08 325.83 284 325.75C284.08 325.49 284.17 325.22 284.25 324.96ZM289.25 326.5C289.33 326.58 289.42 326.67 289.5 326.75C289.42 326.83 289.33 326.92 289.25 327C289.17 326.92 289.08 326.83 289 326.75C289.08 326.67 289.17 326.58 289.25 326.5ZM320.75 326.4C320.83 326.68 320.92 326.97 321 327.25C320.92 327.33 320.83 327.42 320.75 327.5C320.67 327.42 320.58 327.33 320.5 327.25C320.58 326.97 320.67 326.68 320.75 326.4ZM300.25 327.5C300.33 327.58 300.42 327.67 300.5 327.75C300.42 327.83 300.33 327.92 300.25 328C300.17 327.92 300.08 327.83 300 327.75C300.08 327.67 300.17 327.58 300.25 327.5ZM316.75 327.5C316.92 327.5 317.08 327.5 317.25 327.5C317.33 327.58 317.42 327.67 317.5 327.75C317.42 327.83 317.33 327.92 317.25 328C317.08 328 316.92 328 316.75 328C316.67 327.92 316.58 327.83 316.5 327.75C316.58 327.67 316.67 327.58 316.75 327.5Z" fill="#aebeb9" fill-rule="evenodd" stroke="#aebeb9" stroke-width="0.25" stroke-linejoin="round"/>
<path d="M83.94 29C83.87 30.17 83.81 31.33 83.75 32.5C83.36 33.83 82.98 35.17 82.59 36.5C81.68 36.25 80.77 36 79.85 35.75C80.78 34.94 81.18 33.64 82.5 33.75C82.98 32.17 83.46 30.58 83.94 29ZM268.25 44.5C268.33 44.58 268.42 44.67 268.5 44.75C268.42 44.83 268.33 44.92 268.25 45C268.17 44.92 268.08 44.83 268 44.75C268.08 44.67 268.17 44.58 268.25 44.5ZM269.06 44.5C269.02 44.83 268.99 45.17 268.96 45.5C268.99 45.17 269.02 44.83 269.06 44.5ZM267.75 45.5C267.83 45.58 267.92 45.67 268 45.75C268 45.92 268 46.08 268 46.25C267.92 46.33 267.83 46.42 267.75 46.5C267.67 46.42 267.58 46.33 267.5 46.25C267.5 46.08 267.5 45.92 267.5 45.75C267.58 45.67 267.67 45.58 267.75 45.5ZM268.96 45.5C268.82 45.68 268.67 45.86 268.53 46.04C268.67 45.86 268.82 45.68 268.96 45.5ZM266.5 50.5C266.5 49.75 266.5 49 266.5 48.25C266.75 48 267 47.75 267.25 47.5C267.33 48.08 267.42 48.67 267.5 49.25C267.33 49.58 267.17 49.92 267 50.25C266.83 50.33 266.67 50.42 266.5 50.5ZM266.5 50.5C266.54 50.65 266.59 50.8 266.63 50.96C266.39 50.96 266.15 50.96 265.91 50.97C266.11 50.81 266.3 50.66 266.5 50.5ZM263.5 147.57C263.42 149.55 263.33 151.52 263.25 153.5C262.92 152.33 262.58 151.17 262.25 150C261.67 149.88 261.08 149.76 260.5 149.63C260.58 149.42 260.67 149.21 260.75 149C261.33 148.75 261.92 148.5 262.5 148.25C262.33 148.13 262.17 148.02 262 147.9C262.08 147.77 262.17 147.63 262.25 147.5C262.67 147.52 263.08 147.55 263.5 147.57ZM260.5 159.9C259.18 159.96 257.85 160.02 256.53 160.08C252.85 159.97 249.18 159.86 245.5 159.75C250.5 159.8 255.5 159.85 260.5 159.9ZM263.28 307.5C263.21 307.5 263.15 307.5 263.08 307.5C263.15 307.5 263.21 307.5 263.28 307.5Z" fill="#d5d2cd" fill-rule="evenodd" stroke="#d5d2cd" stroke-width="0.25" stroke-linejoin="round"/>
<path d="M265.97 51.5C266.2 51.47 266.44 51.44 266.67 51.42C266.45 53.53 266.22 55.64 266 57.75C266.76 59.79 266.14 61.47 265.78 63.53C265.84 59.52 265.9 55.51 265.97 51.5ZM270.25 149.5C270.25 153.83 270.25 158.17 270.25 162.5C270.25 158.17 270.25 153.83 270.25 149.5Z" fill="#4e736c" fill-rule="evenodd" stroke="#4e736c" stroke-width="0.25" stroke-linejoin="round"/>
</svg>